<svg width="102" height="40" viewBox="0 0 102 40" fill="none" xmlns="http://www.w3.org/2000/svg">
<path d="M11.8481 8.1589V17.8213H1.13844V8.1589H3.16307V16.2016H5.53678V8.1589H7.44971V16.2016H9.83738V8.1589H11.8481ZM21.1765 17.8213H19.1519V13.9396C19.1519 12.6177 19.2496 11.3797 19.4451 10.2254L16.4012 17.8213H13.8879V8.1589H15.9125V12.0825C15.9125 12.8644 15.8846 13.516 15.8287 14.0373C15.7822 14.5493 15.7124 15.1171 15.6193 15.7408L18.719 8.1589H21.1765V17.8213ZM33.6311 12.9342C33.6311 14.3212 33.2308 15.3731 32.4303 16.0899C31.6297 16.7973 30.5173 17.1743 29.0931 17.2209V18.3519H27.0964V17.2069C25.6536 17.1418 24.5365 16.7601 23.7453 16.062C22.9541 15.3545 22.5584 14.3259 22.5584 12.9761C22.5584 11.5891 22.9587 10.5419 23.7593 9.83446C24.5598 9.11769 25.6722 8.73603 27.0964 8.68949V7.64227H29.0931V8.70345C30.536 8.76861 31.653 9.15492 32.4442 9.86238C33.2355 10.5605 33.6311 11.5845 33.6311 12.9342ZM29.0093 15.9084C29.8937 15.8525 30.536 15.5872 30.9362 15.1125C31.3365 14.6377 31.5366 13.9117 31.5366 12.9342C31.5366 11.9754 31.3318 11.2587 30.9223 10.7839C30.5127 10.3092 29.875 10.0486 29.0093 10.002V15.9084ZM24.6529 12.9761C24.6529 13.9349 24.8577 14.6517 25.2673 15.1264C25.6768 15.6012 26.3145 15.8618 27.1802 15.9084V10.002C26.2959 10.0579 25.6536 10.3232 25.2533 10.7979C24.853 11.2726 24.6529 11.9987 24.6529 12.9761ZM40.9277 8.1589L40.7043 9.76464H38.2608V17.8213H36.2082V9.76464H33.6391V8.1589H40.9277Z" fill="#9534D2"/>
<path d="M4.95034 24.2563C5.5554 24.2563 6.08134 24.3447 6.52815 24.5216C6.97497 24.6891 7.41248 24.9498 7.84068 25.3035L6.82138 26.4904C6.26286 26.0342 5.67641 25.8062 5.06204 25.8062C4.3732 25.8062 3.82399 26.0901 3.41441 26.6579C3.01413 27.2164 2.814 28.0961 2.814 29.2969C2.814 30.4698 3.01413 31.3402 3.41441 31.908C3.82399 32.4665 4.37785 32.7458 5.076 32.7458C5.43904 32.7458 5.7695 32.6806 6.06738 32.5503C6.36525 32.4107 6.67709 32.2152 7.0029 31.9639L7.95238 33.1507C7.60796 33.5044 7.17976 33.7977 6.66778 34.0304C6.16512 34.2538 5.6066 34.3655 4.99223 34.3655C4.12652 34.3655 3.36786 34.17 2.71626 33.7791C2.06465 33.3881 1.55733 32.8156 1.19429 32.0616C0.831253 31.2983 0.649734 30.3767 0.649734 29.2969C0.649734 28.2451 0.835908 27.3421 1.20825 26.5881C1.5806 25.8248 2.09258 25.2477 2.74418 24.8567C3.39579 24.4564 4.13117 24.2563 4.95034 24.2563ZM11.1679 24.4797V34.1421H9.11534V24.4797H11.1679ZM20.5084 34.1421H17.8694L14.7975 26.4764C14.8813 27.1373 14.9465 27.761 14.993 28.3474C15.0489 28.9246 15.0768 29.6041 15.0768 30.386V34.1421H13.2197V24.4797H15.8029L18.9306 32.1593C18.7444 30.912 18.6513 29.767 18.6513 28.7244V24.4797H20.5084V34.1421ZM28.3133 24.4797L28.0899 25.9737H24.5991V28.4871H27.643V29.9672H24.5991V32.6341H28.3412V34.1421H22.5465V24.4797H28.3133ZM39.2926 34.1421H37.282L37.0725 30.2185C37.0074 29.0456 36.9748 28.0496 36.9748 27.2304C36.9748 26.7929 36.9794 26.4764 36.9888 26.2809L35.3551 33.1088H33.4142L31.6689 26.267C31.7061 26.8348 31.7247 27.4724 31.7247 28.1799C31.7247 28.9339 31.7061 29.6274 31.6689 30.2604L31.4594 34.1421H29.4627L30.2167 24.4797H32.8278L34.4196 31.14L35.9136 24.4797H38.5526L39.2926 34.1421ZM45.9834 34.1421L45.4389 31.9778H42.4089L41.8643 34.1421H39.728L42.7021 24.4797H45.2015L48.1617 34.1421H45.9834ZM42.7999 30.4559H45.0479L43.9169 26.0017L42.7999 30.4559Z" fill="#9534D2"/>
<path d="M63.3063 19.4978H60.2044C58.8831 19.4978 57.8108 20.5701 57.8108 21.8913C57.8108 23.2125 58.8831 24.2848 60.2044 24.2848H64.1791C64.8481 24.2848 65.4323 24.7252 65.6652 25.3524C66.4151 27.371 67.5091 29.2231 68.8752 30.8366C69.5757 31.6632 68.9981 32.9301 67.9146 32.9301H64.7057C63.5601 32.9301 62.5723 33.811 62.5181 34.9567C62.4606 36.1789 63.4356 37.189 64.6451 37.189H80.388C81.2241 37.3055 82.0762 37.3661 82.9443 37.3661C93.2013 37.3661 101.504 28.9841 101.371 18.6936C101.242 8.74455 93.1199 0.630564 83.1709 0.509293C81.7762 0.491741 80.4167 0.630564 79.1083 0.908211C75.9808 1.57201 72.7878 1.87838 69.5917 1.87838H54.3339C53.0446 1.87838 51.934 2.86929 51.8734 4.15859C51.8079 5.53406 52.9042 6.67018 54.2653 6.67018H64.0707C66.0956 6.67018 67.4168 8.80679 66.5009 10.6115C66.4897 10.6322 66.4801 10.653 66.469 10.6737C66.0094 11.5912 65.068 12.1689 64.0404 12.1689H51.4936C50.2043 12.1689 49.0937 13.1598 49.0331 14.4491C48.9676 15.8245 50.0639 16.9607 51.425 16.9607H63.3047C64.0244 16.9607 64.5988 17.5574 64.5717 18.2771C64.5462 18.9584 63.9861 19.4962 63.3047 19.4962L63.3063 19.4978ZM77.7759 7.88768C77.9418 5.31067 80.0354 3.22034 82.6124 3.05918C85.7383 2.8645 88.3121 5.43992 88.1143 8.56584C87.9515 11.1444 85.8596 13.2364 83.2794 13.3991C80.1487 13.597 77.5716 11.0152 77.7743 7.88608L77.7759 7.88768ZM67.412 16.1405C67.2189 13.0146 69.7943 10.4424 72.9203 10.6402C75.5005 10.803 77.5924 12.8965 77.7536 15.4767C77.9498 18.6074 75.3664 21.1828 72.2373 20.9802C69.6603 20.8126 67.5716 18.7191 67.4104 16.1421L67.412 16.1405ZM81.4427 28.041C81.28 30.6196 79.1881 32.7115 76.6095 32.8743C73.4787 33.0722 70.8985 30.4904 71.1012 27.3613C71.2687 24.7827 73.3623 22.6939 75.9409 22.5328C79.0668 22.3381 81.639 24.9151 81.4427 28.041ZM83.2427 20.6339C82.0667 20.8302 81.0614 19.8297 81.2513 18.6537C81.3662 17.942 81.9374 17.366 82.6491 17.2463C83.8251 17.05 84.8335 18.0489 84.6437 19.2265C84.5288 19.9398 83.9559 20.5158 83.2427 20.6355V20.6339ZM94.7921 28.0378C94.631 30.6164 92.5406 32.7099 89.962 32.8743C86.8313 33.0754 84.2511 30.4936 84.4522 27.3644C84.6165 24.7874 86.7069 22.6955 89.2839 22.5328C92.4082 22.3349 94.9868 24.9119 94.7921 28.0378ZM93.3098 20.9913C90.4471 20.9913 88.127 18.6712 88.127 15.8118C88.127 12.9523 90.6498 10.4328 93.68 10.6434C96.2362 10.8205 98.3058 12.8933 98.4797 15.4496C98.6856 18.4766 96.2905 20.9929 93.3114 20.9929L93.3098 20.9913Z" fill="#9534D2"/>
<rect x="54.082" y="33.0093" width="6.42883" height="4.28589" rx="2.14294" fill="#9534D2"/>
<rect x="41.4033" y="1.93652" width="8.03604" height="4.64304" rx="2.27732" fill="#9534D2"/>
</svg>
